<svg width="32" height="32" viewBox="0 0 32 32" fill="none" xmlns="http://www.w3.org/2000/svg">
<path d="M26.413 6.91825C24.4456 6.01035 22.3642 5.36525 20.2239 5C19.9573 5.47537 19.6458 6.11475 19.431 6.62341C17.1234 6.28118 14.8369 6.28118 12.5717 6.62341C12.357 6.11486 12.0385 5.47537 11.7694 5C9.62699 5.36542 7.54382 6.01216 5.57547 6.92298C1.6586 12.7607 0.596759 18.4533 1.12762 24.0653C3.72555 25.9787 6.2432 27.141 8.71844 27.9016C9.3336 27.0673 9.87738 26.184 10.3442 25.2608C9.45546 24.9271 8.59871 24.5159 7.7841 24.032C7.99847 23.8753 8.2078 23.712 8.41176 23.5423C13.3479 25.8194 18.7114 25.8194 23.5887 23.5423C23.7936 23.7108 24.0028 23.8741 24.2163 24.032C23.4003 24.5171 22.542 24.9292 21.6515 25.2632C22.1209 26.1902 22.6638 27.0743 23.2772 27.904C25.7548 27.1435 28.2748 25.9811 30.8727 24.0653C31.4957 17.5596 29.8087 11.9192 26.413 6.91813V6.91825ZM11.0167 20.614C9.53488 20.614 8.31965 19.2496 8.31965 17.5882C8.31965 15.9267 9.50899 14.56 11.0167 14.56C12.5246 14.56 13.7397 15.9243 13.7138 17.5882C13.7161 19.2496 12.5246 20.614 11.0167 20.614ZM20.9836 20.614C19.5018 20.614 18.2867 19.2496 18.2867 17.5882C18.2867 15.9267 19.4759 14.56 20.9836 14.56C22.4915 14.56 23.7066 15.9243 23.6807 17.5882C23.6807 19.2496 22.4915 20.614 20.9836 20.614V20.614Z" fill="white"/>
</svg>
