<svg width="132" height="117" viewBox="0 0 132 117" fill="none" xmlns="http://www.w3.org/2000/svg">
<g filter="url(#filter0_d_216_276)">
<path d="M37.5 71.5L36 41.5L46 41L47.5 63L81.5 62.5L83 71L37.5 71.5Z" fill="white"/>
<path d="M57 55.5L54.5 36.5L65 36L67 47L84.5 46.5L86 54.5L57 55.5Z" fill="white"/>
<path d="M37.5 71.5L36 41.5L46 41L47.5 63L81.5 62.5L83 71L37.5 71.5Z" stroke="black" stroke-width="0.1"/>
<path d="M57 55.5L54.5 36.5L65 36L67 47L84.5 46.5L86 54.5L57 55.5Z" stroke="black" stroke-width="0.1"/>
</g>
<defs>
<filter id="filter0_d_216_276" x="0.947754" y="0.947998" width="130.112" height="115.603" filterUnits="userSpaceOnUse" color-interpolation-filters="sRGB">
<feFlood flood-opacity="0" result="BackgroundImageFix"/>
<feColorMatrix in="SourceAlpha" type="matrix" values="0 0 0 0 0 0 0 0 0 0 0 0 0 0 0 0 0 0 127 0" result="hardAlpha"/>
<feOffset dx="5" dy="5"/>
<feGaussianBlur stdDeviation="20"/>
<feComposite in2="hardAlpha" operator="out"/>
<feColorMatrix type="matrix" values="0 0 0 0 1 0 0 0 0 1 0 0 0 0 1 0 0 0 0.75 0"/>
<feBlend mode="normal" in2="BackgroundImageFix" result="effect1_dropShadow_216_276"/>
<feBlend mode="normal" in="SourceGraphic" in2="effect1_dropShadow_216_276" result="shape"/>
</filter>
</defs>
</svg>
