<svg width="32" height="32" viewBox="0 0 32 32" fill="none" xmlns="http://www.w3.org/2000/svg">
<path d="M32 6.08407C30.8232 6.60524 29.5591 6.95738 28.2301 7.11655C29.6013 6.29648 30.6272 5.00577 31.1164 3.48528C29.828 4.25011 28.418 4.78847 26.9476 5.07695C25.9588 4.02175 24.6491 3.32234 23.2218 3.08732C21.7945 2.8523 20.3296 3.09481 19.0543 3.7772C17.7791 4.4596 16.7649 5.5437 16.1693 6.86118C15.5737 8.17867 15.43 9.65584 15.7604 11.0633C13.1499 10.9323 10.5961 10.2542 8.26485 9.07291C5.93354 7.89163 3.87681 6.23361 2.22813 4.20646C1.66441 5.17837 1.34026 6.30522 1.34026 7.50532C1.33963 8.58568 1.60582 9.64949 2.11522 10.6024C2.62461 11.5552 3.36145 12.3677 4.26037 12.9677C3.21787 12.9346 2.19836 12.653 1.28671 12.1465V12.231C1.2866 13.7463 1.81102 15.2149 2.77098 16.3877C3.73094 17.5605 5.06731 18.3652 6.55333 18.6654C5.58624 18.927 4.57231 18.9655 3.58813 18.778C4.0074 20.0818 4.82409 21.2219 5.92389 22.0388C7.02368 22.8556 8.35151 23.3082 9.72148 23.3333C7.39587 25.158 4.52376 26.1478 1.56716 26.1434C1.04343 26.1436 0.520146 26.113 0 26.0519C3.00111 27.9804 6.49462 29.004 10.0625 29C22.1404 29 28.7431 19.002 28.7431 10.3309C28.7431 10.0492 28.736 9.76465 28.7233 9.48294C30.0076 8.55466 31.1162 7.40516 31.9972 6.0883L32 6.08407V6.08407Z" fill="white"/>
</svg>
